<?xml version="1.0" encoding="utf-8" standalone="no"?>
<!DOCTYPE svg PUBLIC "-//W3C//DTD SVG 1.1//EN"
  "http://www.w3.org/Graphics/SVG/1.1/DTD/svg11.dtd">
<svg xmlns:xlink="http://www.w3.org/1999/xlink" width="460.8pt" height="345.6pt" viewBox="0 0 460.8 345.6" xmlns="http://www.w3.org/2000/svg" version="1.1">
 <metadata>
  <rdf:RDF xmlns:dc="http://purl.org/dc/elements/1.1/" xmlns:cc="http://creativecommons.org/ns#" xmlns:rdf="http://www.w3.org/1999/02/22-rdf-syntax-ns#">
   <cc:Work>
    <dc:type rdf:resource="http://purl.org/dc/dcmitype/StillImage"/>
    <dc:date>2022-04-23T12:05:45.528077</dc:date>
    <dc:format>image/svg+xml</dc:format>
    <dc:creator>
     <cc:Agent>
      <dc:title>Matplotlib v3.5.1, https://matplotlib.org/</dc:title>
     </cc:Agent>
    </dc:creator>
   </cc:Work>
  </rdf:RDF>
 </metadata>
 <defs>
  <style type="text/css">*{stroke-linejoin: round; stroke-linecap: butt}</style>
 </defs>
 <g id="figure_1">
  <g id="patch_1">
   <path d="M 0 345.6 
L 460.8 345.6 
L 460.8 0 
L 0 0 
z
" style="fill: #ffffff"/>
  </g>
  <g id="axes_1">
   <g id="patch_2">
    <path d="M 57.6 307.584 
L 414.72 307.584 
L 414.72 41.472 
L 57.6 41.472 
z
" style="fill: #ffffff"/>
   </g>
   <g id="LineCollection_1">
    <path d="M 231.625804 112.861155 
L 317.646311 97.190762 
" clip-path="url(#p37ed7106eb)" style="fill: none; stroke: #000000"/>
    <path d="M 231.625804 112.861155 
L 208.166512 155.644506 
" clip-path="url(#p37ed7106eb)" style="fill: none; stroke: #000000"/>
    <path d="M 231.625804 112.861155 
L 239.08132 150.518155 
" clip-path="url(#p37ed7106eb)" style="fill: none; stroke: #000000"/>
    <path d="M 231.625804 112.861155 
L 146.00995 105.087693 
" clip-path="url(#p37ed7106eb)" style="fill: none; stroke: #000000"/>
    <path d="M 317.646311 97.190762 
L 349.820084 117.949261 
" clip-path="url(#p37ed7106eb)" style="fill: none; stroke: #000000"/>
    <path d="M 317.646311 97.190762 
L 382.956484 95.973577 
" clip-path="url(#p37ed7106eb)" style="fill: none; stroke: #000000"/>
    <path d="M 208.166512 155.644506 
L 157.543954 151.723421 
" clip-path="url(#p37ed7106eb)" style="fill: none; stroke: #000000"/>
    <path d="M 208.166512 155.644506 
L 202.414452 192.882993 
" clip-path="url(#p37ed7106eb)" style="fill: none; stroke: #000000"/>
    <path d="M 208.166512 155.644506 
L 239.08132 150.518155 
" clip-path="url(#p37ed7106eb)" style="fill: none; stroke: #000000"/>
    <path d="M 239.08132 150.518155 
L 189.565983 132.919335 
" clip-path="url(#p37ed7106eb)" style="fill: none; stroke: #000000"/>
    <path d="M 239.08132 150.518155 
L 260.649458 188.15922 
" clip-path="url(#p37ed7106eb)" style="fill: none; stroke: #000000"/>
    <path d="M 146.00995 105.087693 
L 161.470123 110.071147 
" clip-path="url(#p37ed7106eb)" style="fill: none; stroke: #000000"/>
    <path d="M 146.00995 105.087693 
L 122.866625 137.738177 
" clip-path="url(#p37ed7106eb)" style="fill: none; stroke: #000000"/>
    <path d="M 146.00995 105.087693 
L 88.589752 110.370246 
" clip-path="url(#p37ed7106eb)" style="fill: none; stroke: #000000"/>
    <path d="M 125.446858 156.53685 
L 157.543954 151.723421 
" clip-path="url(#p37ed7106eb)" style="fill: none; stroke: #000000"/>
    <path d="M 125.446858 156.53685 
L 161.470123 110.071147 
" clip-path="url(#p37ed7106eb)" style="fill: none; stroke: #000000"/>
    <path d="M 125.446858 156.53685 
L 141.206824 192.120127 
" clip-path="url(#p37ed7106eb)" style="fill: none; stroke: #000000"/>
    <path d="M 157.543954 151.723421 
L 189.565983 132.919335 
" clip-path="url(#p37ed7106eb)" style="fill: none; stroke: #000000"/>
    <path d="M 157.543954 151.723421 
L 122.866625 137.738177 
" clip-path="url(#p37ed7106eb)" style="fill: none; stroke: #000000"/>
    <path d="M 161.470123 110.071147 
L 251.339614 120.782137 
" clip-path="url(#p37ed7106eb)" style="fill: none; stroke: #000000"/>
    <path d="M 161.470123 110.071147 
L 189.565983 132.919335 
" clip-path="url(#p37ed7106eb)" style="fill: none; stroke: #000000"/>
    <path d="M 161.470123 110.071147 
L 142.807625 64.564364 
" clip-path="url(#p37ed7106eb)" style="fill: none; stroke: #000000"/>
    <path d="M 161.470123 110.071147 
L 122.866625 137.738177 
" clip-path="url(#p37ed7106eb)" style="fill: none; stroke: #000000"/>
    <path d="M 161.470123 110.071147 
L 117.236915 72.254279 
" clip-path="url(#p37ed7106eb)" style="fill: none; stroke: #000000"/>
    <path d="M 141.206824 192.120127 
L 160.165126 244.655557 
" clip-path="url(#p37ed7106eb)" style="fill: none; stroke: #000000"/>
    <path d="M 141.206824 192.120127 
L 202.414452 192.882993 
" clip-path="url(#p37ed7106eb)" style="fill: none; stroke: #000000"/>
    <path d="M 141.206824 192.120127 
L 122.866625 137.738177 
" clip-path="url(#p37ed7106eb)" style="fill: none; stroke: #000000"/>
    <path d="M 160.165126 244.655557 
L 223.246074 233.64591 
" clip-path="url(#p37ed7106eb)" style="fill: none; stroke: #000000"/>
    <path d="M 160.165126 244.655557 
L 138.623889 284.491636 
" clip-path="url(#p37ed7106eb)" style="fill: none; stroke: #000000"/>
    <path d="M 223.246074 233.64591 
L 260.649458 188.15922 
" clip-path="url(#p37ed7106eb)" style="fill: none; stroke: #000000"/>
    <path d="M 349.820084 117.949261 
L 316.502249 145.887278 
" clip-path="url(#p37ed7106eb)" style="fill: none; stroke: #000000"/>
    <path d="M 316.502249 145.887278 
L 251.339614 120.782137 
" clip-path="url(#p37ed7106eb)" style="fill: none; stroke: #000000"/>
    <path d="M 316.502249 145.887278 
L 260.649458 188.15922 
" clip-path="url(#p37ed7106eb)" style="fill: none; stroke: #000000"/>
    <path d="M 316.502249 145.887278 
L 383.730248 129.839657 
" clip-path="url(#p37ed7106eb)" style="fill: none; stroke: #000000"/>
    <path d="M 122.866625 137.738177 
L 88.589752 110.370246 
" clip-path="url(#p37ed7106eb)" style="fill: none; stroke: #000000"/>
    <path d="M 142.807625 64.564364 
L 117.236915 72.254279 
" clip-path="url(#p37ed7106eb)" style="fill: none; stroke: #000000"/>
    <path d="M 260.649458 188.15922 
L 202.414452 192.882993 
" clip-path="url(#p37ed7106eb)" style="fill: none; stroke: #000000"/>
    <path d="M 383.730248 129.839657 
L 382.956484 95.973577 
" clip-path="url(#p37ed7106eb)" style="fill: none; stroke: #000000"/>
   </g>
   <g id="matplotlib.axis_1">
    <g id="xtick_1"/>
    <g id="xtick_2"/>
    <g id="xtick_3"/>
    <g id="xtick_4"/>
    <g id="xtick_5"/>
    <g id="xtick_6"/>
    <g id="xtick_7"/>
    <g id="xtick_8"/>
    <g id="xtick_9"/>
   </g>
   <g id="matplotlib.axis_2">
    <g id="ytick_1"/>
    <g id="ytick_2"/>
    <g id="ytick_3"/>
    <g id="ytick_4"/>
    <g id="ytick_5"/>
    <g id="ytick_6"/>
    <g id="ytick_7"/>
    <g id="ytick_8"/>
   </g>
   <g id="PathCollection_1">
    <defs>
     <path id="m5b44cfe663" d="M 0 8.660254 
C 2.296726 8.660254 4.499694 7.747755 6.123724 6.123724 
C 7.747755 4.499694 8.660254 2.296726 8.660254 0 
C 8.660254 -2.296726 7.747755 -4.499694 6.123724 -6.123724 
C 4.499694 -7.747755 2.296726 -8.660254 0 -8.660254 
C -2.296726 -8.660254 -4.499694 -7.747755 -6.123724 -6.123724 
C -7.747755 -4.499694 -8.660254 -2.296726 -8.660254 0 
C -8.660254 2.296726 -7.747755 4.499694 -6.123724 6.123724 
C -4.499694 7.747755 -2.296726 8.660254 0 8.660254 
z
" style="stroke: #008000"/>
    </defs>
    <g clip-path="url(#p37ed7106eb)">
     <use xlink:href="#m5b44cfe663" x="317.646311" y="97.190762" style="fill: #008000; stroke: #008000"/>
     <use xlink:href="#m5b44cfe663" x="208.166512" y="155.644506" style="fill: #008000; stroke: #008000"/>
     <use xlink:href="#m5b44cfe663" x="239.08132" y="150.518155" style="fill: #008000; stroke: #008000"/>
     <use xlink:href="#m5b44cfe663" x="146.00995" y="105.087693" style="fill: #008000; stroke: #008000"/>
     <use xlink:href="#m5b44cfe663" x="157.543954" y="151.723421" style="fill: #008000; stroke: #008000"/>
     <use xlink:href="#m5b44cfe663" x="161.470123" y="110.071147" style="fill: #008000; stroke: #008000"/>
     <use xlink:href="#m5b44cfe663" x="141.206824" y="192.120127" style="fill: #008000; stroke: #008000"/>
     <use xlink:href="#m5b44cfe663" x="160.165126" y="244.655557" style="fill: #008000; stroke: #008000"/>
     <use xlink:href="#m5b44cfe663" x="316.502249" y="145.887278" style="fill: #008000; stroke: #008000"/>
     <use xlink:href="#m5b44cfe663" x="122.866625" y="137.738177" style="fill: #008000; stroke: #008000"/>
     <use xlink:href="#m5b44cfe663" x="142.807625" y="64.564364" style="fill: #008000; stroke: #008000"/>
     <use xlink:href="#m5b44cfe663" x="260.649458" y="188.15922" style="fill: #008000; stroke: #008000"/>
     <use xlink:href="#m5b44cfe663" x="383.730248" y="129.839657" style="fill: #008000; stroke: #008000"/>
    </g>
   </g>
   <g id="PathCollection_2">
    <defs>
     <path id="md481bf8b6a" d="M 0 8.660254 
C 2.296726 8.660254 4.499694 7.747755 6.123724 6.123724 
C 7.747755 4.499694 8.660254 2.296726 8.660254 0 
C 8.660254 -2.296726 7.747755 -4.499694 6.123724 -6.123724 
C 4.499694 -7.747755 2.296726 -8.660254 0 -8.660254 
C -2.296726 -8.660254 -4.499694 -7.747755 -6.123724 -6.123724 
C -7.747755 -4.499694 -8.660254 -2.296726 -8.660254 0 
C -8.660254 2.296726 -7.747755 4.499694 -6.123724 6.123724 
C -4.499694 7.747755 -2.296726 8.660254 0 8.660254 
z
" style="stroke: #0000ff"/>
    </defs>
    <g clip-path="url(#p37ed7106eb)">
     <use xlink:href="#md481bf8b6a" x="231.625804" y="112.861155" style="fill: #0000ff; stroke: #0000ff"/>
     <use xlink:href="#md481bf8b6a" x="125.446858" y="156.53685" style="fill: #0000ff; stroke: #0000ff"/>
     <use xlink:href="#md481bf8b6a" x="223.246074" y="233.64591" style="fill: #0000ff; stroke: #0000ff"/>
     <use xlink:href="#md481bf8b6a" x="138.623889" y="284.491636" style="fill: #0000ff; stroke: #0000ff"/>
     <use xlink:href="#md481bf8b6a" x="349.820084" y="117.949261" style="fill: #0000ff; stroke: #0000ff"/>
     <use xlink:href="#md481bf8b6a" x="189.565983" y="132.919335" style="fill: #0000ff; stroke: #0000ff"/>
     <use xlink:href="#md481bf8b6a" x="251.339614" y="120.782137" style="fill: #0000ff; stroke: #0000ff"/>
     <use xlink:href="#md481bf8b6a" x="117.236915" y="72.254279" style="fill: #0000ff; stroke: #0000ff"/>
     <use xlink:href="#md481bf8b6a" x="202.414452" y="192.882993" style="fill: #0000ff; stroke: #0000ff"/>
     <use xlink:href="#md481bf8b6a" x="88.589752" y="110.370246" style="fill: #0000ff; stroke: #0000ff"/>
     <use xlink:href="#md481bf8b6a" x="382.956484" y="95.973577" style="fill: #0000ff; stroke: #0000ff"/>
    </g>
   </g>
   <g id="patch_3">
    <path d="M 57.6 307.584 
L 57.6 41.472 
" style="fill: none; stroke: #000000; stroke-width: 0.8; stroke-linejoin: miter; stroke-linecap: square"/>
   </g>
   <g id="patch_4">
    <path d="M 414.72 307.584 
L 414.72 41.472 
" style="fill: none; stroke: #000000; stroke-width: 0.8; stroke-linejoin: miter; stroke-linecap: square"/>
   </g>
   <g id="patch_5">
    <path d="M 57.6 307.584 
L 414.72 307.584 
" style="fill: none; stroke: #000000; stroke-width: 0.8; stroke-linejoin: miter; stroke-linecap: square"/>
   </g>
   <g id="patch_6">
    <path d="M 57.6 41.472 
L 414.72 41.472 
" style="fill: none; stroke: #000000; stroke-width: 0.8; stroke-linejoin: miter; stroke-linecap: square"/>
   </g>
   <g id="legend_1">
    <g id="patch_7">
     <path d="M 333.505938 64.150125 
L 407.72 64.150125 
Q 409.72 64.150125 409.72 62.150125 
L 409.72 48.472 
Q 409.72 46.472 407.72 46.472 
L 333.505938 46.472 
Q 331.505938 46.472 331.505938 48.472 
L 331.505938 62.150125 
Q 331.505938 64.150125 333.505938 64.150125 
z
" style="fill: #ffffff; opacity: 0.8; stroke: #cccccc; stroke-linejoin: miter"/>
    </g>
    <g id="PathCollection_3">
     <g>
      <use xlink:href="#m5b44cfe663" x="345.505938" y="55.445438" style="fill: #008000; stroke: #008000"/>
     </g>
    </g>
    <g id="text_1">
     <!-- selected -->
     <g transform="translate(363.505938 58.070438)scale(0.1 -0.1)">
      <defs>
       <path id="DejaVuSans-73" d="M 2834 3397 
L 2834 2853 
Q 2591 2978 2328 3040 
Q 2066 3103 1784 3103 
Q 1356 3103 1142 2972 
Q 928 2841 928 2578 
Q 928 2378 1081 2264 
Q 1234 2150 1697 2047 
L 1894 2003 
Q 2506 1872 2764 1633 
Q 3022 1394 3022 966 
Q 3022 478 2636 193 
Q 2250 -91 1575 -91 
Q 1294 -91 989 -36 
Q 684 19 347 128 
L 347 722 
Q 666 556 975 473 
Q 1284 391 1588 391 
Q 1994 391 2212 530 
Q 2431 669 2431 922 
Q 2431 1156 2273 1281 
Q 2116 1406 1581 1522 
L 1381 1569 
Q 847 1681 609 1914 
Q 372 2147 372 2553 
Q 372 3047 722 3315 
Q 1072 3584 1716 3584 
Q 2034 3584 2315 3537 
Q 2597 3491 2834 3397 
z
" transform="scale(0.015625)"/>
       <path id="DejaVuSans-65" d="M 3597 1894 
L 3597 1613 
L 953 1613 
Q 991 1019 1311 708 
Q 1631 397 2203 397 
Q 2534 397 2845 478 
Q 3156 559 3463 722 
L 3463 178 
Q 3153 47 2828 -22 
Q 2503 -91 2169 -91 
Q 1331 -91 842 396 
Q 353 884 353 1716 
Q 353 2575 817 3079 
Q 1281 3584 2069 3584 
Q 2775 3584 3186 3129 
Q 3597 2675 3597 1894 
z
M 3022 2063 
Q 3016 2534 2758 2815 
Q 2500 3097 2075 3097 
Q 1594 3097 1305 2825 
Q 1016 2553 972 2059 
L 3022 2063 
z
" transform="scale(0.015625)"/>
       <path id="DejaVuSans-6c" d="M 603 4863 
L 1178 4863 
L 1178 0 
L 603 0 
L 603 4863 
z
" transform="scale(0.015625)"/>
       <path id="DejaVuSans-63" d="M 3122 3366 
L 3122 2828 
Q 2878 2963 2633 3030 
Q 2388 3097 2138 3097 
Q 1578 3097 1268 2742 
Q 959 2388 959 1747 
Q 959 1106 1268 751 
Q 1578 397 2138 397 
Q 2388 397 2633 464 
Q 2878 531 3122 666 
L 3122 134 
Q 2881 22 2623 -34 
Q 2366 -91 2075 -91 
Q 1284 -91 818 406 
Q 353 903 353 1747 
Q 353 2603 823 3093 
Q 1294 3584 2113 3584 
Q 2378 3584 2631 3529 
Q 2884 3475 3122 3366 
z
" transform="scale(0.015625)"/>
       <path id="DejaVuSans-74" d="M 1172 4494 
L 1172 3500 
L 2356 3500 
L 2356 3053 
L 1172 3053 
L 1172 1153 
Q 1172 725 1289 603 
Q 1406 481 1766 481 
L 2356 481 
L 2356 0 
L 1766 0 
Q 1100 0 847 248 
Q 594 497 594 1153 
L 594 3053 
L 172 3053 
L 172 3500 
L 594 3500 
L 594 4494 
L 1172 4494 
z
" transform="scale(0.015625)"/>
       <path id="DejaVuSans-64" d="M 2906 2969 
L 2906 4863 
L 3481 4863 
L 3481 0 
L 2906 0 
L 2906 525 
Q 2725 213 2448 61 
Q 2172 -91 1784 -91 
Q 1150 -91 751 415 
Q 353 922 353 1747 
Q 353 2572 751 3078 
Q 1150 3584 1784 3584 
Q 2172 3584 2448 3432 
Q 2725 3281 2906 2969 
z
M 947 1747 
Q 947 1113 1208 752 
Q 1469 391 1925 391 
Q 2381 391 2643 752 
Q 2906 1113 2906 1747 
Q 2906 2381 2643 2742 
Q 2381 3103 1925 3103 
Q 1469 3103 1208 2742 
Q 947 2381 947 1747 
z
" transform="scale(0.015625)"/>
      </defs>
      <use xlink:href="#DejaVuSans-73"/>
      <use xlink:href="#DejaVuSans-65" x="52.099609"/>
      <use xlink:href="#DejaVuSans-6c" x="113.623047"/>
      <use xlink:href="#DejaVuSans-65" x="141.40625"/>
      <use xlink:href="#DejaVuSans-63" x="202.929688"/>
      <use xlink:href="#DejaVuSans-74" x="257.910156"/>
      <use xlink:href="#DejaVuSans-65" x="297.119141"/>
      <use xlink:href="#DejaVuSans-64" x="358.642578"/>
     </g>
    </g>
   </g>
  </g>
 </g>
 <defs>
  <clipPath id="p37ed7106eb">
   <rect x="57.6" y="41.472" width="357.12" height="266.112"/>
  </clipPath>
 </defs>
</svg>
